<?xml version="1.0" standalone="no"?>
<!DOCTYPE svg PUBLIC "-//W3C//DTD SVG 20010904//EN"
 "http://www.w3.org/TR/2001/REC-SVG-20010904/DTD/svg10.dtd">
<svg version="1.0" xmlns="http://www.w3.org/2000/svg"
 width="625.000000pt" height="583.000000pt" viewBox="0 0 625.000000 583.000000"
 preserveAspectRatio="xMidYMid meet">
<metadata>
Created by potrace 1.16, written by Peter Selinger 2001-2019
</metadata>
<g transform="translate(0.000000,583.000000) scale(0.100000,-0.100000)"
fill="#000000" stroke="none">
<path d="M0 2915 c0 -1937 3 -2915 10 -2915 7 0 10 972 10 2895 l0 2895 2870
0 2870 0 0 -40 c0 -22 5 -40 10 -40 6 0 10 7 10 15 0 11 11 15 40 15 29 0 40
-4 40 -15 0 -8 -7 -15 -15 -15 -11 0 -15 -11 -15 -40 0 -29 4 -40 15 -40 9 0
15 -9 15 -23 0 -24 27 -57 47 -57 11 0 23 -87 24 -174 0 -44 16 -112 18 -78 1
6 9 12 19 12 20 0 52 -79 52 -129 0 -26 4 -31 25 -31 23 0 25 -4 25 -40 0 -36
3 -40 25 -40 l25 0 0 -120 c0 -73 -4 -120 -10 -120 -18 0 -11 -25 11 -38 26
-16 31 -12 33 29 2 32 26 55 26 25 0 -9 5 -16 10 -16 21 0 1 -280 -21 -288
-19 -7 -8 -32 14 -32 15 0 29 -9 37 -25 7 -14 17 -25 22 -25 4 0 8 308 8 685
l0 685 -3125 0 -3125 0 0 -2915z"/>
<path d="M3374 5671 c-2 -3 36 -13 87 -23 118 -22 264 -91 301 -143 4 -5 8 -6
8 -2 0 5 6 2 13 -5 8 -7 26 -22 42 -33 29 -21 89 -70 116 -95 28 -26 107 -128
142 -183 114 -179 235 -403 222 -415 -2 -3 0 -11 6 -18 7 -9 7 -18 -2 -31 -9
-15 -8 -29 5 -66 20 -60 20 -81 0 -43 -12 21 -18 25 -24 16 -6 -9 -12 -5 -24
16 -8 16 -15 23 -16 15 0 -11 -3 -11 -17 0 -14 12 -15 12 -10 -1 4 -8 10 -23
13 -32 4 -10 12 -18 19 -18 16 0 30 -71 16 -79 -7 -5 -8 -18 -1 -42 6 -18 15
-59 20 -89 5 -30 16 -80 25 -110 20 -68 43 -241 39 -289 -2 -20 1 -52 7 -72 5
-21 6 -54 1 -75 -7 -37 -9 -33 -20 51 -7 50 -17 112 -22 138 -6 27 -10 68 -10
91 0 81 -45 169 -63 124 -3 -7 -6 2 -6 21 -1 36 -16 134 -32 216 -6 28 -38
121 -72 207 -63 163 -87 207 -41 77 46 -133 51 -153 58 -249 4 -52 11 -99 17
-105 11 -11 12 -58 0 -70 -5 -6 -4 -38 2 -76 5 -37 7 -75 2 -85 -4 -11 -9 -14
-10 -9 -53 176 -72 210 -76 135 -1 -23 -2 -22 -8 5 -4 17 -3 32 1 33 4 2 7 31
7 65 -2 58 -2 59 -9 22 -4 -22 -8 -34 -9 -27 0 7 -5 10 -11 7 -5 -3 -10 3 -10
14 0 26 -23 114 -31 121 -3 3 -9 12 -13 20 -3 8 -4 4 -1 -10 17 -73 23 -145
15 -153 -6 -4 -8 -5 -6 -1 2 3 -2 28 -10 56 -7 28 -11 55 -9 59 3 3 0 21 -6
39 -8 23 -9 34 -1 39 13 8 -60 159 -75 154 -5 -2 -17 13 -26 33 -36 74 -26 24
19 -97 66 -178 71 -193 93 -309 31 -160 33 -185 17 -230 -11 -33 -12 -50 -2
-88 7 -29 9 -64 4 -92 -16 -92 -19 -138 -19 -263 1 -90 -2 -126 -10 -121 -8 4
-9 60 -4 188 11 303 13 492 6 471 -6 -15 -9 -11 -14 20 -22 149 -52 286 -76
348 -15 40 -41 110 -57 157 -30 90 -146 276 -221 355 -97 103 -206 175 -328
216 -23 7 -85 13 -145 14 -100 0 -109 -2 -175 -34 -122 -60 -217 -177 -336
-413 -46 -92 -108 -188 -120 -188 -14 0 -13 2 56 134 36 69 60 123 52 121 -7
-3 -40 -56 -73 -118 -60 -111 -100 -215 -136 -352 l-18 -70 6 70 c4 39 7 84 9
100 1 17 3 38 3 48 1 10 7 15 12 12 6 -4 10 9 10 32 0 72 55 222 116 313 30
47 58 88 60 93 3 4 3 7 1 7 -7 0 -102 -140 -122 -179 -34 -66 -101 -303 -91
-320 3 -4 -6 -64 -20 -132 -21 -104 -26 -153 -27 -301 l-1 -178 -32 103 c-37
116 -44 114 -14 -4 11 -44 21 -97 23 -118 2 -44 19 -50 28 -11 5 19 7 14 8
-20 1 -25 6 -63 11 -85 4 -22 11 -60 13 -85 3 -25 13 -62 22 -83 9 -22 14 -44
12 -50 -2 -7 -12 13 -21 43 -15 46 -47 124 -96 235 -51 115 -90 270 -105 420
-11 105 -13 112 -14 53 -2 -96 15 -201 60 -382 21 -88 39 -169 39 -181 0 -12
9 -47 20 -79 10 -31 22 -84 25 -119 l5 -62 -18 80 c-10 44 -28 102 -40 128
-12 27 -22 55 -22 62 0 8 -4 16 -9 19 -10 7 0 -40 23 -102 19 -52 46 -189 50
-257 3 -49 3 -49 -10 -20 -7 17 -16 46 -19 65 -4 19 -13 51 -20 72 -8 20 -23
73 -35 118 -11 45 -25 89 -29 98 -5 9 -14 28 -19 42 -9 21 -11 17 -11 -33 -1
-73 19 -198 30 -191 5 3 9 -1 9 -8 0 -7 6 -25 14 -40 8 -14 16 -50 20 -80 3
-36 3 -45 -3 -28 -6 16 -9 19 -10 8 -1 -22 9 -49 18 -44 11 7 5 -168 -8 -222
-7 -29 -11 -71 -7 -92 3 -22 1 -71 -4 -111 -13 -94 -2 -136 16 -64 8 28 14 66
15 85 0 19 3 29 6 22 2 -6 9 -9 15 -6 7 4 8 -14 3 -55 -8 -71 4 -80 36 -27 12
20 26 33 33 30 8 -3 27 11 43 31 22 26 32 32 36 22 13 -34 -299 -379 -467
-516 -82 -67 -116 -86 -170 -97 -46 -8 -43 7 6 26 48 19 130 80 125 94 -2 6 0
19 5 29 6 12 -9 6 -47 -18 -87 -56 -193 -104 -244 -110 -25 -3 -85 -13 -132
-21 -47 -9 -97 -14 -110 -12 -20 3 -15 7 26 22 79 28 138 56 132 63 -4 3 -34
-2 -69 -10 -35 -9 -85 -20 -113 -26 -27 -5 -59 -13 -70 -17 -11 -4 16 17 60
47 97 65 243 208 313 305 57 80 59 106 3 42 -61 -70 -100 -105 -172 -154 -38
-25 -104 -80 -146 -120 -43 -41 -88 -77 -101 -80 -12 -3 -22 -10 -22 -15 0 -5
-9 -9 -20 -9 -19 0 -17 6 19 78 21 42 42 88 46 100 6 21 5 23 -12 13 -11 -5
-37 -44 -58 -85 -21 -42 -40 -76 -41 -76 -2 0 -1 16 1 35 6 46 -7 44 -31 -5
-12 -26 -24 -38 -34 -35 -21 6 -40 -39 -40 -93 l0 -45 32 6 c18 4 69 13 114
21 44 8 98 15 120 14 21 0 74 -1 117 -1 42 -1 77 -3 77 -6 0 -8 257 -4 332 4
97 10 173 52 259 144 42 45 82 81 88 81 14 0 32 14 74 59 18 19 43 44 56 55
13 12 29 27 37 34 7 6 16 12 21 12 10 0 83 104 83 119 0 6 14 20 30 33 17 12
30 26 30 30 0 5 9 18 19 30 l20 21 5 -24 c3 -13 8 -53 11 -87 8 -81 33 -163
89 -288 87 -196 128 -290 145 -329 40 -94 41 -94 36 -40 -2 28 -2 42 1 33 5
-16 7 -16 21 -2 21 21 28 96 13 136 -23 63 -71 158 -79 158 -16 0 -109 200
-103 222 1 4 -5 22 -13 41 -17 42 -11 95 20 157 12 25 25 67 29 93 4 25 11 49
17 52 5 4 7 11 4 16 -4 5 3 9 15 9 12 0 19 -4 16 -9 -8 -12 38 -23 59 -15 12
5 14 14 10 36 -7 28 -5 29 16 23 42 -13 68 -44 64 -76 -5 -33 0 -36 21 -14 9
8 20 15 27 15 6 0 2 -6 -8 -14 -25 -18 -13 -42 24 -49 26 -6 31 -11 31 -36 0
-23 8 -34 34 -51 31 -18 45 -20 128 -16 109 6 171 22 205 54 13 12 28 22 34
22 5 0 9 7 9 16 0 17 49 61 62 56 5 -1 7 4 6 10 -2 7 4 13 12 13 11 0 14 -9
12 -34 -3 -22 0 -31 7 -27 6 4 11 2 11 -3 0 -6 11 -11 24 -11 24 0 24 -1 24
-112 1 -116 -17 -217 -45 -249 -7 -8 -13 -23 -13 -32 0 -25 -20 -31 -21 -5 -1
21 -2 21 -7 3 -4 -11 -14 -20 -22 -20 -8 0 -16 -10 -18 -22 -2 -13 -10 -23
-17 -23 -22 0 -27 -18 -20 -69 5 -38 12 -51 31 -60 15 -6 24 -7 24 -1 0 21 29
9 32 -12 5 -36 22 -27 29 15 3 20 9 41 14 45 4 4 6 -5 3 -20 -3 -16 -1 -25 5
-21 5 3 7 -3 4 -13 -29 -98 -92 -432 -84 -441 8 -7 25 60 37 147 13 90 19 113
75 297 58 188 75 281 77 441 1 72 3 132 4 132 2 0 20 -28 40 -62 81 -139 202
-260 216 -218 2 7 21 3 49 -9 37 -17 66 -20 165 -20 89 1 154 -6 259 -25 77
-15 178 -34 225 -42 47 -8 96 -18 109 -21 l23 -6 -7 99 c-3 55 -13 131 -20
169 -7 39 -19 122 -25 185 -15 138 -55 383 -66 401 -6 11 -16 48 -28 109 -1 8
-5 22 -8 30 -3 8 -10 33 -16 55 -6 22 -27 96 -46 165 -19 69 -53 217 -75 330
-50 255 -81 350 -187 568 -191 395 -356 620 -542 738 -31 20 -59 40 -62 44 -3
4 -39 23 -80 43 -70 34 -253 81 -266 68z m-32 -353 c123 -57 239 -162 333
-302 78 -115 83 -125 64 -109 -24 20 -121 26 -195 14 -149 -25 -224 -66 -224
-123 0 -29 2 -30 33 -24 18 3 67 19 109 35 101 39 176 47 253 27 64 -16 80
-31 120 -108 39 -74 28 -188 -17 -185 -21 1 -21 2 -8 28 13 24 3 25 -23 2 -11
-10 -17 -12 -13 -5 4 6 2 12 -3 12 -6 0 -12 10 -12 23 -1 16 -3 17 -6 5 -6
-23 -40 -33 -59 -17 -8 7 -12 19 -9 28 5 13 4 13 -6 4 -10 -10 -16 -9 -31 4
-17 15 -18 15 -18 0 0 -10 5 -17 11 -17 5 0 7 -4 4 -10 -11 -18 -49 -4 -55 21
-6 23 -6 23 -14 -5 -6 -23 -9 -27 -17 -15 -5 9 -9 10 -9 2 0 -7 -16 -15 -35
-19 -19 -3 -35 -10 -35 -14 0 -5 -8 -11 -19 -15 -26 -8 -101 -79 -101 -96 0
-10 14 -14 50 -16 49 -1 154 -28 177 -45 7 -5 14 -5 18 2 4 6 15 8 26 5 10 -4
19 -2 19 3 0 6 15 10 34 10 46 0 70 15 71 44 0 20 4 23 31 20 25 -2 37 4 57
28 14 16 28 26 31 21 3 -5 22 -63 41 -130 35 -119 44 -191 25 -191 -14 0 -36
-48 -44 -95 -4 -22 -10 -51 -13 -64 -4 -14 -2 -22 4 -18 5 4 8 -18 5 -56 -3
-34 -8 -64 -13 -65 -11 -5 -12 -22 -1 -22 5 0 14 10 20 23 8 17 11 18 11 5 1
-9 -4 -20 -10 -23 -6 -4 -8 -14 -5 -22 4 -9 2 -11 -6 -7 -8 5 -9 -1 -4 -20 8
-33 -32 -157 -80 -242 -39 -70 -116 -153 -219 -235 -115 -93 -238 -144 -370
-156 -66 -5 -168 8 -204 27 -9 5 -35 16 -58 24 -72 27 -216 121 -281 186 -34
33 -62 65 -62 70 0 5 -6 15 -12 22 -49 52 -126 284 -107 319 11 22 13 80 3
134 -6 33 -8 36 -15 20 -6 -16 -8 -14 -8 12 -1 22 -5 31 -14 27 -9 -3 -12 6
-9 36 3 25 0 40 -7 40 -7 0 -9 -11 -6 -27 5 -24 4 -25 -4 -7 -5 12 -13 53 -16
91 -6 61 -2 90 40 263 29 121 55 208 69 230 13 20 47 48 77 65 78 42 179 46
316 11 123 -32 123 -32 123 -3 0 38 -28 66 -83 82 -66 20 -239 30 -294 17 -24
-5 -43 -8 -43 -6 0 1 30 61 68 131 95 180 200 282 358 349 82 34 211 31 296
-8z m1068 -2037 c14 -138 30 -195 64 -226 44 -41 34 -157 -17 -203 -16 -15
-38 -35 -49 -45 -27 -26 -35 -13 -9 14 23 25 27 45 9 51 -8 3 -12 47 -14 139
-2 74 -8 159 -14 189 -6 34 -8 109 -3 205 7 147 8 148 14 70 4 -44 12 -131 19
-194z m-230 32 c0 -113 5 -167 20 -228 11 -44 20 -111 20 -149 l0 -69 -26 24
c-40 37 -51 67 -59 159 -3 47 -9 93 -11 103 -10 32 15 17 26 -15 17 -56 2 159
-17 225 -13 48 -14 65 -4 99 l12 40 20 -20 c17 -19 19 -37 19 -169z m470 -316
c11 -48 19 -118 19 -155 -1 -37 -3 -59 -6 -50 -3 13 -12 15 -36 11 -50 -8 -66
19 -93 157 -3 14 0 38 6 55 l11 29 23 -29 24 -30 7 58 c4 32 11 55 16 50 4 -4
17 -48 29 -96z"/>
<path d="M2782 4583 c4 -32 -17 -42 -32 -14 -12 23 -46 28 -53 9 -2 -7 0 -21
4 -30 7 -13 4 -20 -10 -28 -16 -8 -21 -6 -26 10 -3 11 -3 24 0 30 10 17 -3 11
-22 -9 -10 -11 -33 -22 -52 -24 -40 -7 -55 -25 -38 -46 10 -12 9 -14 -5 -8
-10 3 -18 3 -18 -2 0 -5 21 -18 48 -29 26 -12 54 -26 62 -31 60 -40 129 -53
167 -32 12 6 31 11 42 11 12 0 21 4 21 9 0 10 74 25 112 22 14 -1 29 3 33 9 8
13 -80 100 -101 100 -8 0 -17 7 -21 16 -5 13 -7 13 -15 2 -7 -10 -11 -9 -23 6
-8 11 -15 14 -15 8 0 -20 -27 -13 -33 9 -4 16 -1 20 16 19 36 -3 44 1 17 10
-49 16 -62 12 -58 -17z"/>
<path d="M3314 4120 c-12 -5 -28 -17 -35 -27 -20 -26 -64 -28 -88 -4 -40 40
-141 20 -141 -28 0 -20 -24 -7 -37 20 l-13 24 0 -23 c0 -51 40 -87 85 -76 14
3 25 12 25 20 0 23 47 21 94 -3 27 -14 32 -13 80 10 28 14 67 28 86 31 33 7
34 6 15 -9 -11 -9 -28 -14 -38 -11 -11 3 -17 0 -14 -7 2 -7 13 -13 25 -15 26
-4 82 47 82 74 0 9 -3 14 -7 11 -3 -4 -11 -3 -17 2 -17 14 -79 21 -102 11z"/>
<path d="M3260 3894 c-23 -13 -22 -13 25 -9 43 4 52 1 67 -19 45 -62 8 -103
-52 -56 -14 11 -31 20 -37 20 -7 0 -13 7 -13 15 0 8 -7 15 -15 15 -8 0 -15 -6
-15 -13 0 -7 -9 -19 -20 -27 -11 -8 -20 -20 -20 -27 0 -18 -28 -16 -47 2 -16
17 -10 71 7 60 6 -3 10 -1 10 4 0 6 -5 11 -11 11 -5 0 -7 5 -4 10 11 19 52 11
64 -12 6 -13 9 -15 7 -5 -3 9 0 17 7 17 27 0 -20 20 -48 20 -37 0 -66 -19
-125 -83 -78 -85 -79 -89 -35 -128 82 -72 120 -89 235 -103 19 -2 -1 -3 -46
-2 -59 1 -81 -2 -81 -11 0 -7 6 -13 14 -13 7 0 13 -5 13 -11 0 -8 27 -10 88
-7 96 4 176 34 196 73 6 11 16 23 21 27 17 13 -5 9 -35 -7 -20 -10 -10 4 36
51 75 76 75 75 -13 151 -89 77 -119 87 -173 57z m158 -161 c-16 -4 -19 -9 -17
-29 0 -3 -21 -17 -46 -31 -39 -20 -60 -24 -129 -24 -85 0 -127 13 -161 51 -18
20 -18 20 101 21 65 0 137 4 159 8 41 9 124 12 93 4z"/>
<path d="M1904 3856 c3 -30 9 -62 13 -72 4 -12 3 -15 -5 -10 -9 5 -12 -18 -12
-88 0 -52 4 -98 10 -101 6 -4 10 18 11 57 0 35 5 72 10 83 10 23 6 -337 -5
-370 -3 -11 0 -7 8 10 12 25 14 27 18 10 2 -11 5 0 5 25 0 25 5 86 10 135 5
50 6 108 1 130 -5 22 -11 58 -14 80 -7 45 -44 165 -52 165 -2 0 -2 -24 2 -54z"/>
<path d="M3051 1562 c-1 -19 42 -232 135 -662 7 -36 19 -166 24 -290 14 -284
25 -409 38 -422 6 -6 32 -7 66 -3 l57 7 -2 357 c-2 280 1 390 15 516 21 195
35 345 35 365 -1 35 -18 -32 -24 -96 -4 -38 -23 -145 -42 -239 -19 -93 -39
-206 -43 -250 -5 -44 -13 -96 -18 -115 l-10 -35 -2 40 c-2 34 -4 29 -14 -32
-7 -40 -14 -75 -17 -78 -3 -3 -11 52 -18 122 -7 70 -21 163 -31 208 -10 44
-26 116 -35 160 -10 44 -26 116 -37 160 -11 44 -26 114 -33 156 -13 71 -42
159 -44 131z"/>
<path d="M4204 407 c-71 -38 -207 -132 -279 -191 -27 -23 -62 -49 -77 -59 -28
-18 -28 -17 -12 -124 7 -46 31 -42 40 5 4 20 13 51 20 68 7 17 11 34 8 37 -10
9 86 94 179 158 104 72 184 109 235 109 67 0 202 -78 202 -117 0 -7 4 -13 9
-13 5 0 16 -19 26 -42 9 -24 30 -71 46 -104 21 -44 29 -72 26 -98 l-4 -36 108
0 108 0 29 43 c29 41 98 113 137 142 20 14 20 14 -1 15 -46 0 -141 -98 -167
-174 -8 -24 -46 11 -82 75 -40 71 -230 279 -255 279 -6 0 -42 14 -80 30 -91
40 -137 39 -216 -3z"/>
</g>
</svg>
